<?xml version="1.0" encoding="UTF-8" standalone="no"?>
<!-- Created with Inkscape (http://www.inkscape.org/) -->

<svg
   xmlns:dc="http://purl.org/dc/elements/1.1/"
   xmlns:cc="http://creativecommons.org/ns#"
   xmlns:rdf="http://www.w3.org/1999/02/22-rdf-syntax-ns#"
   xmlns:svg="http://www.w3.org/2000/svg"
   xmlns="http://www.w3.org/2000/svg"
   xmlns:sodipodi="http://sodipodi.sourceforge.net/DTD/sodipodi-0.dtd"
   xmlns:inkscape="http://www.inkscape.org/namespaces/inkscape"
   width="256px"
   height="256px"
   viewBox="0 0 256 256"
   version="1.1"
   id="SVGRoot"
   inkscape:version="0.92.2 (5c3e80d, 2017-08-06)"
   sodipodi:docname="drawing-2.svg">
  <sodipodi:namedview
     id="base"
     pagecolor="#ffffff"
     bordercolor="#666666"
     borderopacity="1.0"
     inkscape:pageopacity="0.0"
     inkscape:pageshadow="2"
     inkscape:zoom="1"
     inkscape:cx="128"
     inkscape:cy="128"
     inkscape:document-units="px"
     inkscape:current-layer="layer1"
     showgrid="false"
     inkscape:window-width="1920"
     inkscape:window-height="1001"
     inkscape:window-x="-9"
     inkscape:window-y="-9"
     inkscape:window-maximized="1"
     inkscape:grid-bbox="true" />
  <defs
     id="defs10" />
  <metadata
     id="metadata13">
    <rdf:RDF>
      <cc:Work
         rdf:about="">
        <dc:format>image/svg+xml</dc:format>
        <dc:type
           rdf:resource="http://purl.org/dc/dcmitype/StillImage" />
        <dc:title></dc:title>
      </cc:Work>
    </rdf:RDF>
  </metadata>
  <g
     id="layer1"
     inkscape:groupmode="layer"
     inkscape:label="Layer 1">
    <path
       style="fill:#ffffff"
       id="path26"
       d="m 55.760996,1.2823472 c 0.540162,2.6355778 1.320362,5.2128146 2.210403,7.7498123 0.876115,1.9629245 1.096198,4.0959795 1.569437,6.1632855 0.347121,1.605141 0.839326,3.15379 1.334862,4.715944 0.788049,1.461651 1.227086,3.019119 1.487517,4.649258 0.435418,1.621432 0.80177,3.258207 1.267619,4.871482 0.546314,1.820704 0.65503,3.718736 1.128043,5.554185 0.283953,1.63297 0.91797,3.161905 1.327612,4.761371 0.254653,1.717912 0.508514,3.410315 0.904395,5.10265 0.204746,1.667113 0.758833,3.248488 1.131552,4.87865 0.237791,1.609298 0.489258,3.224934 1.084452,4.74737 0.351503,0.735478 0.591198,1.510009 0.820279,2.289396 0,0 -13.055201,7.109349 -13.055201,7.109349 v 0 c -0.195784,-0.733587 -0.408455,-1.459025 -0.747508,-2.142849 -0.65586,-1.582713 -1.001993,-3.275459 -1.194714,-4.973452 -0.33914,-1.634664 -0.95698,-3.192859 -1.124221,-4.862623 -0.385129,-1.690223 -0.751431,-3.353526 -0.896199,-5.085507 -0.371465,-1.604857 -1.056231,-3.108777 -1.311768,-4.742893 -0.484201,-1.827129 -0.624787,-3.692391 -1.09594,-5.523193 -0.495989,-1.676294 -0.89209,-3.368992 -1.374504,-5.050065 -0.203533,-1.571382 -0.604697,-3.045705 -1.389379,-4.437396 -0.485864,-1.60002 -1.038858,-3.162371 -1.364312,-4.808538 -0.507267,-2.010511 -0.580212,-4.13166 -1.450894,-6.054534 -0.909723,-2.55619 -1.603431,-5.18334 -2.305054,-7.801756 0,0 13.043523,-7.1099468 13.043523,-7.1099468 z"
       inkscape:connector-curvature="0" />
    <path
       style="fill:#ffffff"
       id="path28"
       d="m 58.01098,-3.3373593 c 2.254599,1.8079856 4.51072,3.63064557 6.600971,5.6291708 1.714244,1.6059932 3.442463,3.1826741 4.912236,5.0241934 0.989574,1.496434 2.521857,2.439774 3.656253,3.7859431 1.111416,1.260262 2.120679,2.584582 3.046527,3.98991 0.962082,1.194684 1.996688,2.315305 2.843602,3.600241 0.952284,1.147644 1.704685,2.504749 2.982352,3.321814 1.375805,1.109501 2.244099,2.695277 3.328918,4.063611 1.119009,1.34551 2.08319,2.815365 3.163957,4.189608 1.130779,1.23517 1.864695,2.653837 2.630438,4.12214 0.928601,1.096463 1.710536,2.304715 2.526181,3.487467 0.909185,1.388781 1.779225,2.794464 2.617283,4.229319 0.902314,1.196599 1.728875,2.477529 2.375833,3.831915 0.675267,1.134058 1.274312,2.371365 2.409889,3.104817 -0.18747,0.742271 2.55706,-1.045853 1.82441,-0.630835 -12.688708,7.187674 -16.234,9.509265 -11.740845,6.587718 1.370061,-0.819097 2.133892,-2.263862 3.280229,-3.33415 1.044836,-1.120378 2.278781,-1.985812 3.512198,-2.872162 5.093428,-4.018759 10.079058,-6.272393 16.300698,-9.781995 1.79685,-0.303151 3.67282,-0.554421 5.47166,-0.195712 1.83806,0.255428 3.45963,1.040171 5.09041,1.866919 1.45595,0.867126 2.50248,2.085857 3.45056,3.465349 0.92695,1.275512 2.0646,2.373067 2.94848,3.677926 1.03542,1.322664 1.92836,2.749964 2.8488,4.153433 0.92709,1.451058 2.28756,2.52557 3.25465,3.944269 0.82173,1.201701 1.81062,2.260923 2.72608,3.386226 0.92259,0.920635 1.68815,2.035572 3.12638,1.902552 1.43199,-0.186541 2.79237,-0.381364 3.93412,-1.321543 5.24375,-2.103399 13.32534,-7.182087 -8.68698,5.382232 5.14174,-3.751576 11.07464,-6.237109 16.45983,-9.643844 1.45889,-0.574534 2.74225,-1.340713 4.29405,-1.675459 0.869,-0.682112 1.98031,-0.689696 2.9708,-1.022054 0.48323,-0.162144 0.92064,-0.439867 1.39543,-0.625271 -25.58181,15.106564 -5.03152,1.935064 4.02932,-1.979383 -4.04977,2.309785 -8.09351,4.630175 -12.14931,6.929353 -0.21142,0.119849 0.40462,-0.269974 0.6154,-0.390937 4.46669,-2.563331 8.91107,-5.166663 13.41633,-7.661562 0.33932,-0.187904 1.99218,-0.685395 2.42302,-0.82935 1.48454,-1.080695 3.23805,-1.404621 5.01956,-1.604365 1.53792,-0.467251 2.76938,-1.379345 4.3417,-1.7661 1.68794,-0.139026 3.21361,-0.814327 4.88061,-1.092428 1.88082,-0.248303 3.78178,-0.260254 5.67564,-0.277942 1.97603,-0.07794 3.88138,-0.05136 5.80571,0.397375 1.61709,0.291763 3.07225,1.16341 4.2744,2.259856 1.09886,0.930604 2.16943,1.925733 3.12643,3.00638 1.11785,0.994945 1.98783,2.29345 2.65689,3.627133 0.76498,1.197644 1.47531,2.428684 2.26809,3.607577 1.06574,0.968547 1.8898,2.174373 2.7279,3.340129 0.98031,1.441011 1.32111,3.177886 2.20647,4.667939 0.7685,1.294774 1.38981,2.672802 2.15202,3.9694 0.84842,1.547577 1.51465,3.183607 1.98088,4.884677 0.60836,1.514639 1.15869,2.971498 0.90449,4.618223 -12.24734,8.540189 -9.36852,9.797234 -16.03589,6.182682 -1.33598,-0.745008 -2.60369,-1.349445 -4.12768,-1.614736 -1.84667,-0.236633 -3.71323,-0.229355 -5.57168,-0.237732 -1.93344,0.121094 -3.93878,-0.255065 -5.82871,0.217848 -1.69947,0.424643 -3.46553,0.823415 -5.21077,0.538444 -1.67591,-0.270163 -3.28642,-0.561068 -4.73201,-1.488534 -0.23766,-0.136833 -0.7769,-0.542175 -1.14133,-0.462039 -0.12921,0.02841 -0.41027,0.329599 -0.29382,0.266813 4.2196,-2.275131 8.44092,-4.548507 12.61325,-6.909217 0.0872,-0.04934 -0.20052,-0.09585 -0.2944,-0.06081 -0.08,0.02987 -0.0878,0.146551 -0.13168,0.219826 0.0858,1.587684 0.25406,3.170748 0.33671,4.760566 0.14498,1.927867 -0.0206,3.872856 0.18692,5.794283 0.38323,1.748147 0.6433,3.510524 0.78685,5.293567 0.12745,1.974309 0.13046,3.953755 0.137,5.931313 -0.0487,1.210695 0.17628,3.46014 -1.14156,4.204692 -4.48295,2.53278 -9.05247,4.90918 -13.57871,7.36377 -1.77425,-0.13708 -3.3604,-1.05061 -4.67536,-2.20375 -1.20215,-0.91111 -2.65272,-1.32472 -3.87235,-2.22341 -0.94373,-1.0349 -1.98503,-2.06633 -3.26002,-2.67614 -1.58765,-0.52253 -3.28485,-0.52188 -4.93918,-0.55965 -1.98448,-0.0241 -3.9692,-0.008 -5.95375,-0.001 -0.31686,0.0644 -0.64459,0.0887 -0.95056,0.19318 -0.28344,0.0968 -1.06252,0.55304 -0.80187,0.40547 20.55865,-11.638985 14.62306,-8.425456 10.08702,-5.451433 -1.35458,0.787076 -2.05067,1.905754 -2.79705,3.220478 -0.67529,1.290785 -1.54486,2.480135 -2.54756,3.535045 -0.95246,1.0469 -1.92239,2.08951 -2.96475,3.04913 -1.00147,0.99697 -1.96437,2.03727 -3.00483,2.99459 -1.0162,1.01525 -1.99275,2.07506 -3.05534,3.0429 -1.16518,0.8081 -2.34117,1.61023 -3.38496,2.57352 -1.18248,0.99741 -2.29174,2.07574 -3.40895,3.14611 -0.99385,1.19005 -2.16206,2.15206 -3.37413,3.09908 -1.17663,0.33876 -1.52704,2.04217 -2.68167,2.29822 -0.076,-0.15783 -0.18032,-0.30492 -0.22794,-0.47348 -0.0396,-0.14038 0.24722,0.16349 0.38758,0.2032 0.57119,0.16158 1.16,0.22318 1.74716,0.29405 1.85128,0.16949 3.71277,0.16644 5.57012,0.17344 2.00879,0.001 4.01757,-0.005 6.02636,-0.008 2.0027,-0.003 4.00541,-0.003 6.00812,-0.004 2.00004,-2.1e-4 4.00007,-1.3e-4 6.00011,-1.1e-4 1.82494,-0.12331 3.86849,0.47475 5.44111,-0.64025 -20.63037,12.38561 -13.40766,9.07372 -9.83075,4.35356 1.11182,-1.02921 1.45937,-2.5182 2.39654,-3.67091 2.11152,1.69496 10.17095,-9.54933 15.85028,-7.63178 0.50595,0.17083 0.95832,0.47149 1.43974,0.70257 1.52112,0.50508 3.05242,0.79373 4.42445,1.66416 1.33801,0.76014 2.84887,1.05257 4.28841,1.5739 1.63803,0.51121 3.3639,0.56867 5.06519,0.62777 1.18989,0.044 2.42843,0.10109 3.55496,-0.37501 0.45923,-0.19409 0.85233,-0.51905 1.29518,-0.74806 4.59643,-2.29717 11.69626,-6.57451 -10.06568,5.86757 -0.47305,0.27047 0.89584,-0.62336 1.3126,-0.97443 1.17072,-0.96457 2.56138,-1.64272 3.51178,-2.84548 0.89726,-1.25522 1.30352,-2.71685 1.86717,-4.12644 0.57851,-1.64321 0.9846,-3.32949 1.70824,-4.92045 0.62951,-1.41827 1.28509,-2.82936 2.00263,-4.20571 6.56429,-9.800531 10.44877,-10.093578 16.22839,-6.55515 1.34887,0.60163 2.77736,1.07548 4.05931,1.81599 0.22242,0.1089 0.45705,0.19576 0.66725,0.32669 1.19744,0.74591 0.12018,0.25773 1.25417,0.88387 0.65062,0.35924 1.34585,0.52001 2.00434,0.87624 1.31971,0.91521 2.21446,2.1678 3.05836,3.50765 0.57645,1.38197 1.54126,2.53027 2.23743,3.8427 0.54186,1.56166 1.13358,3.11543 1.53146,4.72374 0.6574,1.47392 0.90362,3.06482 1.33621,4.60349 0.56399,1.36932 1.14429,2.74848 1.75836,4.10243 0.81193,1.58475 1.08874,3.32658 1.2625,5.0768 0.073,1.73601 0.57217,3.4097 0.82711,5.12344 0.24739,1.93151 0.27497,3.88132 0.29918,5.82565 -0.005,1.74144 -0.51752,3.33709 -1.53725,4.73679 4.5573,-5.43127 -10.13256,10.37687 -14.65357,7.28261 -0.58483,-0.40027 -1.16216,-1.0452 -1.6793,-1.53322 -1.16616,-1.21989 -2.11898,-2.5859 -3.01411,-4.01244 -0.77311,-1.17686 -1.77544,-2.03757 -2.94704,-2.79702 -1.38961,-0.51446 -2.69582,-1.16319 -4.1584,-1.46921 -1.79937,-0.28409 -3.62732,-0.28693 -5.44435,-0.304 -1.92838,0.11291 -3.92841,-0.26064 -5.81331,0.21116 -1.46918,0.39379 -2.74138,1.29442 -4.07146,2.00791 4.04413,-2.33073 8.07282,-4.68846 12.1324,-6.99219 0.20962,-0.11895 -0.36982,0.3128 -0.57753,0.43504 -4.4366,2.61101 -8.99634,5.01709 -13.35121,7.76226 -3.94472,2.48663 8.07004,-4.67463 12.1199,-6.98608 0.21256,-0.12132 -0.39379,0.29265 -0.60602,0.41455 -4.46698,2.56572 -8.95304,5.09807 -13.42956,7.64711 19.99892,-20.72672 14.59015,-8.04524 10.47199,-5.62867 -2.09236,1.22782 -31.74765,18.21052 -1.27776,0.7544 -35.28083,20.26999 -1.67746,0.94356 -1.25915,0.70579 0.21083,-0.11984 -0.38482,0.29756 -0.59453,0.41936 -4.45288,2.58628 -8.89353,5.19487 -13.39068,7.70338 -1.01901,0.26273 -0.54977,0.0633 -1.41503,0.58077 4.01882,-2.29841 8.03195,-4.60678 12.05644,-6.89524 0.24823,-0.14115 -0.47915,0.31134 -0.72709,0.453 -4.50207,2.57215 -8.9584,5.22746 -13.52237,7.68811 -4.06293,2.19052 15.94718,-9.30112 12.01884,-6.87749 -11.46866,7.07572 -8.70216,6.00453 -14.22336,8.04114 -4.28589,2.7332 -10.56811,5.95251 10.7776,-6.16742 0.21411,-0.12157 -0.3875,0.30649 -0.60013,0.43063 -13.35393,7.79628 -8.41759,6.40194 -14.15873,7.93967 -1.44321,0.89504 -2.95179,1.57665 -4.60848,1.96607 -5.08127,2.52784 -13.55768,7.5314 8.54903,-5.10257 -4.45502,2.57595 -8.88762,5.19106 -13.36505,7.72786 -0.65165,0.36921 -0.83846,0.18194 -1.53193,0.44653 -0.23249,0.0887 -0.42659,0.25765 -0.65046,0.36628 -0.22898,0.11112 -0.92592,0.41924 -0.70561,0.29177 4.03456,-2.33444 8.10259,-4.61057 12.15389,-6.91585 -4.82984,2.95874 -4.30566,2.6468 -14.04968,8.02399 -0.36486,0.20134 -1.24856,0.22594 -1.62315,0.34002 -0.4923,0.14994 -0.94222,0.41624 -1.42614,0.59132 -0.26258,0.0677 -0.53715,0.0995 -0.78774,0.20306 -0.46097,0.19058 -1.75624,0.94627 -1.32428,0.69683 3.82894,-2.21104 15.3726,-8.74481 11.54258,-6.53564 -4.46041,2.57277 -8.93345,5.12359 -13.40017,7.68539 -1.60481,0.31618 -3.03748,1.01296 -4.65554,1.30352 -1.47513,0.83599 -3.1462,1.03056 -4.80417,1.17255 -1.78578,-0.0788 -3.43764,0.56065 -5.18238,0.8299 -1.69642,0.34416 -3.14326,0.87589 -4.90512,1.09112 -1.76064,-0.0226 -3.37675,0.63342 -5.09848,0.90707 -1.88327,0.24201 -3.78535,0.25858 -5.68107,0.27825 -1.70221,0.13227 -3.53068,0.43641 -5.15525,1.00968 -1.87666,0.62551 -3.84752,0.80626 -5.80957,0.92166 -0.51592,0.25402 -1.12444,0.24126 -1.64754,0.47053 -0.46219,0.20258 -1.74661,1.01181 -1.30914,0.76027 4.0088,-2.30492 16.02281,-9.24039 12.04334,-6.8852 -4.45841,2.63864 -8.98686,5.15709 -13.48029,7.73564 -0.28175,0.10373 -0.55876,0.2214 -0.845263,0.31118 -1.979101,0.62017 0.106723,-0.19325 -1.644421,0.62902 -0.252661,0.11863 -1.015475,0.45965 -0.773938,0.31974 20.813752,-12.05578 15.622162,-8.97444 11.443292,-6.48954 -7.02016,9.56368 -9.937473,5.70062 -15.903104,8.48014 -0.519951,0.24225 -0.989388,0.58284 -1.503986,0.83627 4.017711,-2.29926 8.025677,-4.61564 12.05313,-6.89778 0.22919,-0.12987 -0.4287,0.30766 -0.65651,0.43993 -4.46391,2.59162 -8.970576,5.10966 -13.417173,7.73088 -4.004324,2.36051 8.053084,-4.64487 12.090283,-6.9487 0.40667,-0.23207 -0.75771,0.5553 -1.09388,0.88123 -1.258826,1.02117 -2.154345,2.3529 -2.972425,3.73308 -0.604225,1.38355 -1.59862,2.5362 -2.263401,3.88084 -0.493804,1.43226 -1.37742,2.66337 -2.067971,3.99665 -0.942579,1.48102 -1.801159,3.01132 -2.655339,4.54423 -1.10148,1.50071 -2.0819,3.07918 -3.070464,4.65542 -0.98391,1.60855 -1.874679,3.26682 -2.889705,4.8566 -0.909594,1.22937 -1.753045,2.51979 -2.44167,3.88651 -0.755019,1.27079 -1.309796,2.6369 -2.17039,3.84484 -1.010938,1.17825 -1.76378,2.53839 -2.709077,3.7657 -0.941739,1.25727 -1.662766,2.6494 -2.467847,3.99082 -0.814244,1.25403 -1.609922,2.51705 -2.397862,3.79022 -0.883792,1.40876 -1.48784,2.95925 -2.413259,4.34507 -0.900681,1.1966 -1.751658,2.42099 -2.569736,3.6781 -0.904942,1.39101 -1.508152,2.93972 -2.432115,4.3213 -0.809215,1.27843 -1.547781,2.56722 -2.068851,3.98929 -0.589443,1.39179 -1.408312,2.63615 -1.95409,4.04808 -0.618373,1.37195 -1.445704,2.59929 -1.995983,4.00325 -0.630636,1.33659 -1.357831,2.63484 -2.138818,3.88998 -0.737794,1.28164 -1.339811,2.63616 -2.060265,3.92612 -3.454584,5.46196 -10.271092,9.00457 -16.725045,9.5049 -1.964728,0.10096 -3.93321,0.0742 -5.899705,0.0642 -2.007118,-0.0124 -4.014263,-0.0181 -6.021413,-0.0213 -2.001018,-0.003 -4.002038,-0.002 -6.003057,-0.002 -1.999953,3e-5 -3.999905,1.2e-4 -5.999858,1.7e-4 -1.999981,4e-5 -3.999963,5e-5 -5.9999436,5e-5 -1.9999996,0 -3.9999991,0 -5.9999987,0 -1.98082124,-0.0873 -3.9971615,0.20741 -5.9462685,-0.19571 -1.9529456,-0.38994 -3.3141258,-0.44633 -4.6699752,-2.04795 -1.0385135,-1.66116 -1.1091251,-3.62585 -1.1840342,-5.52616 0.1300741,-1.80644 -0.2524912,-3.54578 -0.5586018,-5.30966 -0.308626,-1.89493 -0.368574,-3.81642 -0.411521,-5.732 -0.03103,-1.99864 -0.02503,-3.99762 -0.02316,-5.99644 0.0026,-2.00139 0.004,-4.00278 0.0048,-6.00417 6.43e-4,-2.0001 6.43e-4,-4.00021 6.64e-4,-6.00032 -0.110253,-1.82072 0.387612,-3.58188 0.6701753,-5.36294 0.1629375,-1.79398 0.3042319,-3.56285 0.6978462,-5.32336 0.3061758,-1.69219 0.5285835,-3.37858 0.9630571,-5.04489 0.4582754,-1.73537 0.5585525,-3.53023 0.6296946,-5.3149 -0.1026901,-1.85418 0.2390933,-3.6459 0.5816832,-5.4537 0.3295339,-1.82298 0.3912287,-3.67744 0.4371154,-5.52479 0.034267,-1.98958 0.027988,-3.97957 0.02615,-5.96937 0.00161,-1.59281 0.7740685,-2.04511 -0.9059112,-2.16385 -0.2292348,-0.0125 -0.4597116,-0.0644 -0.6877044,-0.0375 -0.4539339,0.0536 -0.8725013,0.27512 -1.3166465,0.38311 -0.8185247,0.199 -1.6458457,0.30376 -2.4807917,0.40327 -7.416677,0.50648 -6.449747,3.00371 9.3359951,-8.97673 0.2483023,-0.0478 0.5070256,-0.0576 0.744907,-0.14336 0.471171,-0.16981 1.78983157,-0.89732 1.35623672,-0.64666 -3.80888512,2.20196 -15.30765382,8.68189 -11.48405582,6.50558 4.4817945,-2.55094 8.9680725,-5.094 13.4521088,-7.641 1.6739661,-0.33894 3.279007,-0.58726 4.8107716,-1.38217 -0.8588395,0.81947 3.4686948,-1.94165 2.2597059,-1.24425 -19.2637983,11.11217 -15.0990004,9.12123 -10.8217263,6.03885 4.2145849,-3.8549 9.4255032,-5.65932 14.621832,-8.6205 0.214471,-0.12221 0.837899,-0.52194 0.623645,-0.39935 -12.17083612,6.96408 -15.7716344,9.94826 -11.5884441,6.53882 1.0377209,-0.97651 2.1156017,-1.87968 3.2945263,-2.68742 1.0437527,-0.98053 2.354379,-1.58179 3.4736183,-2.46184 0.3414991,-0.44167 0.6506458,-0.39525 0.070893,-0.45089 -0.1825267,-0.0175 -0.3641718,-0.0432 -0.5462577,-0.0649 -0.2379557,-0.0219 -0.4759113,-0.0438 -0.7138669,-0.0656 -1.88431,-0.12583 -3.7745931,-0.10524 -5.6619773,-0.10003 -2.01561445,0.009 -4.0312362,0.0161 -6.0468687,0.0197 -1.928218,0.012 -3.8567516,-0.0143 -5.7848159,0.0149 -1.596783,-0.5192 -2.084576,-1.89467 -1.190427,-3.27201 0.624423,-1.3114 1.65712,-2.23998 2.7363523,-3.15984 0.9762337,-1.0503 2.0393266,-1.96562 3.0109816,-3.02255 1.0537682,-1.28956 2.2409238,-2.4711 3.4314857,-3.63574 1.0552906,-1.26772 2.27956491,-2.32312 3.54514729,-3.36308 0.92582571,-1.13531 2.17399421,-1.91603 3.25328901,-2.88569 4.6520107,-3.6567 0.2228957,-0.22431 14.0783291,-8.03681 0.431372,-0.24324 1.746271,-0.9343 1.317872,-0.68587 -14.2335974,8.25414 -15.9935155,9.38184 -11.588613,6.58911 4.040266,-4.2264 7.826868,-4.55187 14.38655,-8.79523 3.912437,-2.5309 -8.073604,4.65484 -12.11638,6.97185 -0.3988465,0.22859 0.757329,-0.52621 1.096208,-0.83685 1.116541,-0.87611 2.232736,-1.75474 3.355948,-2.62508 0.998774,-1.05804 2.309426,-1.71476 3.427266,-2.62731 0.309521,-0.89957 1.211581,0.15421 0.76971,0.38455 -0.326613,0.17025 -0.73679,0.0145 -1.104968,0.004 -1.85608,-0.0494 -3.713117,-0.0357 -5.569637,-0.03 -2.017475,0.008 -4.0349608,0.0111 -6.0524486,0.0131 -2.0032848,0.002 -4.0065704,0.002 -6.00985573,0.002 -1.59350247,-0.003 -3.46551677,0.075 -4.84202467,-0.87004 -1.0807093,-1.76388 -0.2650315,-2.24562 1.177727,-3.09882 1.189474,-0.92536 2.0662597,-2.2069 2.87773557,-3.46445 1.22399636,-1.45759 2.26875773,-3.0457 3.38070013,-4.58628 0.9138919,-1.27779 1.9082993,-2.50859 3.0225961,-3.61737 1.1031553,-1.18681 1.9704011,-2.56061 3.0207475,-3.7911 3.5713587,-4.52042 9.2093717,-5.92138 14.4450887,-8.91255 0.779654,-0.44542 1.591987,-0.63541 2.356809,-1.1208 5.543955,-1.92235 13.518795,-7.02709 -8.218505,5.32752 4.710914,-2.82012 7.657342,-4.59045 14.07561,-8.02161 4.108354,-2.1963 -16.035559,9.48085 -12.130371,6.94081 0.881991,-0.57367 33.525687,-19.090092 1.944929,-1.0672 2.575993,1.39811 11.425599,-7.90059 16.916807,-9.12043 -0.465812,0.13774 1.802285,-0.90145 1.365913,-0.64908 -3.823547,2.21133 -15.366676,8.71874 -11.529498,6.53115 30.390382,-17.325649 6.222825,-3.51234 1.296902,-0.6939 4.450987,-2.57842 8.879397,-5.19622 13.352961,-7.73526 0.638773,-0.36255 0.845968,-0.18352 1.526094,-0.4428 0.232352,-0.0886 0.865966,-0.4893 0.649985,-0.36607 -17.458808,9.961 -16.050314,9.15625 -11.766256,6.70801 1.089608,0.41685 -1.956703,0.0875 -2.032148,0.0834 -1.946809,-0.0722 -3.895566,-0.0551 -5.843311,-0.0492 -1.776798,0.0626 -3.486545,0.62553 -5.265533,0.82705 -1.617203,0.54007 -3.18929,1.19648 -4.83823,1.63834 -1.723243,0.38867 -2.893677,1.2359 -4.729123,0.98349 -1.3342794,-1.06589 -0.9546559,-2.42342 -0.243185,-3.72053 1.073766,-0.97064 1.693214,-2.26837 2.402388,-3.50373 0.940225,-1.17543 1.426793,-2.60556 2.082109,-3.94295 0.696845,-1.29069 1.703256,-2.343945 2.652106,-3.443549 1.067391,-0.939916 1.738891,-2.211074 2.635617,-3.298826 0.806309,-1.240414 2.117916,-1.958795 3.220753,-2.894318 4.704997,-3.95803 7.908865,-5.064957 15.130978,-8.979318 0.246852,-0.133793 0.561442,-0.06433 0.828926,-0.149701 0.241161,-0.07697 0.455105,-0.221844 0.682657,-0.332766 1.522812,-0.463915 2.840872,-1.238517 4.412851,-1.570762 0.620015,-0.507454 1.450568,-0.55186 2.148215,-0.860808 0.716326,-0.31722 1.282748,-0.711494 2.04983,-0.958253 4.304045,-2.690476 10.42187,-5.857097 -10.870904,6.221456 -0.210156,0.119213 0.392853,-0.281432 0.592007,-0.418233 0.850435,-0.584176 0.308544,-0.151457 1.11055,-0.853993 4.633992,-3.680099 0.177366,-0.190983 14.058083,-8.064841 0.429785,-0.243797 1.733865,-0.948323 1.306449,-0.700397 -13.506381,7.834508 -15.970166,9.483224 -11.533125,6.547888 0.651871,-0.487173 1.46957,0.138585 0.349279,-0.79256 -1.111341,-0.912972 -2.365285,-1.133044 -3.595209,-1.739808 -1.541426,-0.829447 -3.096473,-1.425995 -4.824139,-1.728326 -1.611392,-0.593742 -3.253767,-0.96815 -4.859173,-1.566235 -1.454607,-0.595756 -2.812804,-1.217204 -4.38575,-1.471113 -1.919113,-0.117214 -3.789813,-0.255845 -5.584863,-0.989222 -1.609277,-0.558672 -3.095036,-0.990489 -3.548284,-2.776821 -0.06,-0.986597 0.522248,-1.587217 1.333456,-2.056095 13.310289,-7.693342 8.393736,-6.577088 14.198307,-7.795955 0.28484,-0.04045 0.577149,-0.04497 0.854522,-0.121359 0.50547,-0.139201 0.963769,-0.420138 1.466939,-0.567435 0.82647,-0.241937 1.568753,-0.305902 2.351647,-0.680076 1.604437,-0.686565 3.356818,-0.79583 5.07669,-0.891201 0.743568,-0.363981 1.625012,-0.363999 2.388015,-0.644502 3.878967,-1.426021 19.11021,-10.75409 -10.801948,6.237121 0.2058,-0.127578 0.407445,-0.262117 0.617401,-0.382734 4.464827,-2.564974 8.905797,-5.17248 13.40658,-7.673827 0.233807,-0.129941 0.528727,-0.103607 0.775105,-0.207762 0.226592,-0.09579 0.41109,-0.271917 0.629118,-0.385865 0.223421,-0.116767 0.910347,-0.431021 0.692189,-0.304693 -4.035032,2.336559 -8.097713,4.62504 -12.14657,6.93756 4.815094,-3.116245 2.946064,-1.92253 14.023392,-8.06502 0.93441,-0.518139 2.238898,-0.336591 3.242427,-0.72637 1.441238,-0.477958 3.012037,-0.894095 4.27867,-1.753755 1.430712,-0.911681 3.189062,-0.68053 4.715443,-1.248789 1.568208,-0.375963 2.90701,-1.172367 4.493473,-1.509282 0.890252,-0.161572 1.79358,-0.211679 2.694736,-0.266905 0,0 -11.929462,8.839718 -11.929462,8.839718 v 0 c -0.859303,0.110463 -1.721274,0.217592 -2.548782,0.489577 -1.495025,0.527682 -2.936033,1.18904 -4.505642,1.491603 -1.59723,0.268345 -3.132925,0.643444 -4.529004,1.506764 -1.474162,0.543258 -2.904204,1.184588 -4.450289,1.517293 -0.81476,0.154034 -1.626361,0.294892 -2.396328,0.61719 -0.233742,0.09784 -0.900834,0.463504 -0.682116,0.335555 16.877861,-9.873446 15.832861,-9.25146 11.457874,-6.630578 -4.453581,2.574451 -8.898908,5.163231 -13.360742,7.723351 -0.73569,0.422126 -0.609677,0.259791 -1.387148,0.600856 -0.231406,0.101515 -0.896265,0.466428 -0.678084,0.33895 13.984907,-8.171101 15.949417,-9.394577 11.462157,-6.618655 -5.507286,3.154669 -10.833587,7.921294 -17.39762,8.610143 -1.678026,0.191125 -3.303594,0.546865 -4.867207,1.204228 -1.586867,0.378814 -3.121768,0.922473 -4.696171,1.343449 -4.959352,2.265026 -0.438757,0.227246 11.431917,-6.717244 0.18191,-0.106419 -0.392594,0.160057 -0.569527,0.274559 -0.16318,0.105602 -0.263487,0.303618 -0.442156,0.38015 -0.09314,0.0399 -0.737303,0.02718 -0.886328,0.02607 -0.909573,0.150849 2.445737,1.136533 2.526864,1.225216 1.806206,0.481608 3.660693,0.489326 5.492013,0.831569 1.567527,0.400529 2.989631,1.114288 4.513307,1.641418 1.546315,0.554398 3.158707,0.911703 4.722636,1.413215 1.758845,0.450204 3.381541,1.184089 5.018347,1.95942 1.412459,0.541205 2.752199,1.177917 3.913658,2.170546 0.776969,0.834531 1.955236,2.221792 0.817542,3.212046 -4.953936,2.954618 -2.195649,1.312841 -13.964791,8.116221 -0.431054,0.249179 -1.775567,0.899168 -1.346398,0.646756 11.514361,-6.77207 16.359358,-8.910564 11.420246,-6.702678 -2.023171,1.467421 0.920507,-0.728809 -1.06666,0.968798 -4.422487,3.778065 -9.92739,6.427691 -15.272533,8.809586 -1.390027,0.654532 -2.808698,1.257966 -4.281718,1.701177 -1.456476,0.531769 -2.854915,1.203585 -4.332973,1.683417 -0.501513,0.149772 -1.93,0.792706 -1.479213,0.526739 4.006071,-2.363607 8.048405,-4.665206 12.072607,-6.997809 -0.687509,0.302441 -1.273635,0.604223 -1.708758,1.251362 -1.172537,0.774498 -2.188261,1.760929 -3.383939,2.50081 -0.810742,1.203017 -1.808988,2.261981 -2.538472,3.526113 -1.089756,0.851794 -2.005239,1.996116 -2.79442,3.117513 -0.996276,1.192275 -1.215573,2.729805 -2.049118,4.018771 -0.999809,1.101665 -1.330979,2.567245 -2.309764,3.674375 -0.165334,0.0895 -0.346098,0.15502 -0.496004,0.26847 -0.280727,0.21247 -0.753804,1.67234 -0.921245,0.44407 1.507218,-0.23939 2.881414,-1.04405 4.390058,-1.30723 1.634319,-0.56524 3.267523,-1.20213 4.98587,-1.45682 1.782823,-0.30032 3.54347,-0.78533 5.370654,-0.65028 1.982166,-3.2e-4 3.968837,-0.0191 5.945672,0.14772 1.690331,0.21713 3.515377,0.62205 3.639047,2.67107 -0.09015,0.20714 -0.07823,0.50272 -0.270445,0.62142 -4.376313,2.7025 -8.860738,5.22658 -13.327964,7.776 -0.447139,0.25518 -0.978916,0.33056 -1.438007,0.56355 -0.220689,0.11201 -0.857986,0.49379 -0.643894,0.36964 4.027622,-2.33551 8.056325,-4.66916 12.084487,-7.00374 -14.730134,8.49358 -20.236447,11.67567 -1.286463,0.72259 0.210328,-0.12157 -0.419048,0.24591 -0.629921,0.36654 -4.466829,2.55507 -8.921645,5.13131 -13.403169,7.66052 -0.410989,0.23195 -1.002246,0.39612 -1.445486,0.53829 -5.170159,2.14527 -13.148928,8.17872 8.727604,-5.32101 -4.465775,2.55522 -8.931764,5.11007 -13.397325,7.66566 -0.214777,0.12292 -0.857764,0.494 -0.643688,0.36987 4.027097,-2.33512 16.162769,-9.24421 12.082758,-7.00283 -44.995724,24.71872 8.693471,-3.82267 -1.939969,1.10416 -6.080034,3.4733 -11.134795,6.74226 -17.243024,9.32761 -0.808895,0.34494 -0.826378,0.34078 -1.62099,0.72653 -0.256862,0.12469 -1.011373,0.52951 -0.765623,0.38413 22.678273,-13.4153 14.678759,-9.19763 10.835902,-6.23778 -0.949335,1.32323 -2.095301,2.49322 -2.977211,3.87177 -0.95862,1.22141 -2.182081,2.2127 -3.125763,3.45806 -1.029952,1.59402 -2.12521,3.17447 -3.350511,4.62469 -0.99264,1.19697 -1.683039,2.64356 -2.692257,3.82501 -1.0308703,1.04865 0.09897,0.0138 -1.0133026,0.72904 -0.1480719,0.0952 -0.2234257,0.30596 -0.393175,0.35262 -0.4215161,0.11587 -0.8504631,-0.3663 -1.0882411,-0.62917 1.4397679,0.26316 2.8595267,0.45551 4.3353717,0.33485 2.002737,-1.2e-4 4.005475,-2.1e-4 6.00821,-0.002 2.0171,-0.003 4.034192,-0.008 6.051283,-0.0145 1.897902,-0.003 3.800731,-0.0343 5.694033,0.11813 1.308693,0.20019 3.44966,1.22514 2.045364,2.75727 -1.191296,0.7874 -2.215475,1.79175 -3.498922,2.44656 -0.919905,1.0765 -2.132156,1.95706 -3.330037,2.68901 -6.049034,5.05746 15.134913,-6.6747 -14.354976,8.79952 -4.1255727,2.16481 8.038226,-4.71317 12.056495,-7.0712 0.398788,-0.23401 -1.651946,0.89767 -1.106814,0.83615 -0.146497,0.2166 -0.215968,0.51409 -0.43949,0.64979 -4.396878,2.66933 -8.898855,5.16162 -13.3575553,7.72635 -0.4329183,0.24902 -1.7900321,0.88288 -1.3595743,0.62963 4.0083606,-2.35825 8.0669256,-4.63043 12.0766466,-6.98636 0.206281,-0.1212 -0.440826,0.18611 -0.661239,0.27917 -1.174885,0.81099 -2.176238,1.85222 -3.35027,2.66598 -0.547933,0.77576 -0.990963,1.03155 -1.747698,1.55696 -0.800128,0.55553 -0.489033,0.50219 -1.170833,1.22286 -0.201281,0.21276 -0.436337,0.39081 -0.654506,0.58622 -1.028216,1.28112 -2.2971303,2.35085 -3.4454894,3.51965 -0.8127027,1.23469 -1.7711828,2.261 -2.9772565,3.10275 -0.7849396,1.17501 -2.0766333,1.65685 -2.8431823,2.85312 -0.6645867,1.45002 -1.64332197,0.45714 -0.3789837,0.62363 1.9166067,0.0296 3.8337225,6.9e-4 5.7504844,0.007 2.0160877,-0.005 4.0321625,-0.0144 6.0482545,-0.0166 1.948623,0.006 3.912137,-0.02 5.841871,0.28836 1.619153,0.40026 3.29918,1.3653 2.714494,3.3102 -0.803872,1.32697 -2.092849,1.9092 -3.385221,2.67505 -1.005548,1.0493 -2.428304,1.53188 -3.277695,2.73112 -4.572464,3.60757 -0.840242,0.70232 -13.8093627,8.33432 -0.2172148,0.12783 -0.90685292,0.43782 -0.68963947,0.30999 4.00452497,-2.35662 8.04812607,-4.64636 12.05526417,-6.99853 0.420676,-0.24694 -1.778046,0.82967 -1.253535,0.75508 -0.560437,0.62334 -0.453941,0.59912 -1.176798,1.03009 -4.9989034,2.98034 -10.14953075,6.68884 -15.697789,8.99903 -1.5879199,0.51522 -3.2686842,0.70509 -4.771593,1.45484 4.019505,-2.3234 8.0390185,-4.64679 12.0585149,-6.9702 0.2177978,-0.1259 -0.434934,0.25294 -0.653419,0.37764 -4.4750716,2.55411 -8.9363122,5.13265 -13.4272409,7.65878 -0.672417,0.37823 -1.45747,0.43477 -2.144251,0.77653 14.48637244,-11.56175 6.330289,-8.04339 14.27842089,-9.11627 1.62976821,-0.28082 3.24582161,-0.79914 4.88284841,-0.25704 1.6833172,0.74432 2.3936611,2.02408 1.8345982,3.8397 0.00255,1.9984 0.00895,3.99687 -0.00926,5.99522 -0.027569,1.90926 -0.059367,3.82451 -0.3187166,5.71938 -0.2812867,1.76376 -0.8542209,3.46544 -0.6902811,5.27434 -0.044502,1.86827 -0.097254,3.74798 -0.4697298,5.58567 -0.3930656,1.67094 -0.8822295,3.27906 -0.9828199,5.00923 -0.3730143,1.74075 -0.786413,3.42196 -0.7549043,5.22385 -0.2111483,1.74429 -0.7499882,3.43692 -0.7791053,5.18763 -4.5e-6,2.00028 2.05e-5,4.00055 -4.779e-4,6.00082 -6.464e-4,2.00171 -0.00176,4.00342 -0.00447,6.00513 -0.00232,1.98934 -0.00849,3.97877 0.012355,5.96804 0.029823,1.84619 0.064101,3.69853 0.3270851,5.52939 0.2972705,1.8283 0.797356,3.62343 0.6364479,5.4953 0.035615,1.53022 -0.035985,3.19962 0.7065274,4.58327 1.0619438,1.00168 2.7307948,0.87194 4.079865,1.20221 1.935659,0.10345 3.876857,0.0131 5.814498,0.0435 1.999999,0 3.999998,0 5.999996,0 1.999976,-1e-5 3.999951,-3e-5 5.999926,-8e-5 1.999983,-6e-5 3.999966,-1.9e-4 5.999949,-2e-5 2.001507,3.3e-4 4.003017,7.1e-4 6.00452,0.005 2.007216,0.005 4.014411,0.0149 6.02162,0.0217 1.930817,-7e-4 3.873551,0.0273 5.789564,-0.24651 0.541515,-0.11411 2.076439,-0.72355 1.600561,-0.44106 -3.996547,2.37239 -8.074866,4.60521 -12.070925,6.97842 -0.446332,0.26507 2.624409,-1.08465 1.733396,-1.04438 0.673434,-1.33447 1.432489,-2.61515 2.035517,-3.97816 0.699159,-1.28566 1.518703,-2.48943 2.192276,-3.7788 0.403071,-0.69949 0.5273,-1.43218 0.885477,-2.15124 0.860122,-1.72674 -0.121413,0.38978 0.808703,-1.14595 0.131952,-0.21787 0.202795,-0.46732 0.304193,-0.70098 0.401343,-0.70064 0.523909,-1.43226 0.877138,-2.15385 0.91345,-1.86602 -0.179903,0.51383 0.795841,-1.15646 0.129336,-0.22139 0.196761,-0.47356 0.295142,-0.71034 0.390533,-0.72188 0.505066,-1.47113 0.847224,-2.2131 0.707362,-1.53391 0.0015,0.1511 0.801674,-1.23162 0.137275,-0.23721 0.219064,-0.50245 0.328596,-0.75368 0.881834,-1.4173 1.861095,-2.74655 2.428275,-4.34519 0.846249,-1.23531 1.509603,-2.60112 2.573686,-3.65407 0.882282,-1.41663 1.861343,-2.7447 2.418843,-4.34753 0.830687,-1.23514 1.454017,-2.58407 2.426964,-3.70334 0.748508,-1.42585 1.591966,-2.7779 2.406577,-4.16228 0.161857,-0.23096 0.323715,-0.46191 0.485572,-0.69287 0.181773,-0.19035 0.386998,-0.36079 0.54532,-0.57105 0.601368,-0.79865 0.768263,-1.88189 1.683964,-2.43986 0.791838,-1.23733 1.730591,-2.34718 2.204773,-3.77448 0.909452,-1.26444 1.419626,-2.80242 2.395064,-4.04114 1.260044,-1.38939 2.032231,-3.13152 2.942771,-4.75783 1.033998,-1.55148 1.879733,-3.21719 3.078794,-4.64707 1.025265,-1.40998 1.668969,-3.06418 2.626499,-4.52314 0.875063,-1.14052 1.407099,-2.53138 2.195347,-3.73675 0.451982,-1.52658 1.34084,-2.69785 2.21495,-4.00194 0.621371,-1.54139 1.582966,-3.04311 2.743523,-4.22288 5.983428,-5.41925 -14.955063,8.49365 14.357721,-8.89922 3.98678,-2.36557 -8.009901,4.6694 -12.023059,6.98994 -0.227787,0.13171 0.44426,-0.28209 0.66639,-0.42314 4.465205,-2.59952 8.93041,-5.19905 13.395619,-7.79858 5.14496,-2.55322 15.29433,-4.92845 -8.080964,5.29857 5.702704,-3.2982 11.196384,-6.93362 17.273644,-9.42787 -3.98837,2.30522 -16.03023,9.08264 -11.96511,6.91564 5.04323,-2.68841 10.45624,-7.84204 16.71836,-8.49527 1.9224,-0.1986 3.81018,-0.55812 5.65361,-1.15092 1.77345,-0.35884 3.54197,-0.79616 5.36701,-0.70728 1.85668,-0.0498 3.72329,-0.11447 5.54809,-0.4926 1.69799,-0.37775 3.38114,-0.73128 5.1194,-0.87505 1.64091,-0.34004 3.21757,-0.92858 4.89108,-1.11267 1.73318,-0.3629 3.45119,-0.68418 5.22665,-0.76108 1.62907,-0.27143 3.14308,-0.83224 4.71604,-1.30727 1.50519,-0.44918 3.02153,-0.94327 4.44662,-1.59438 -4.02583,2.33602 -8.04807,4.67825 -12.0775,7.00807 -0.20864,0.12063 0.40634,-0.25957 0.61488,-0.38038 4.45149,-2.57866 8.89777,-5.16647 13.36493,-7.71788 0.68158,-0.38928 1.464,-0.50245 2.17925,-0.80783 0.74847,-0.26993 1.53185,-0.42923 2.26856,-0.72947 0.2353,-0.0959 0.90734,-0.45654 0.68798,-0.32829 -3.80768,2.22607 -16.54149,9.59201 -11.45506,6.62313 4.46427,-2.55826 8.91627,-5.13806 13.39281,-7.67478 0.6721,-0.38086 1.44463,-0.52307 2.13477,-0.87032 0.2225,-0.11196 0.86544,-0.49362 0.64995,-0.36871 -4.0246,2.33297 -8.05154,4.66191 -12.0773,6.99286 4.99303,-2.87132 11.07539,-7.24497 17.07759,-9.33685 1.5688,-0.58788 2.99745,-1.46268 4.55727,-2.07075 4.74763,-2.5041 1.59612,-0.85387 -11.39185,6.6717 -0.2107,0.12208 0.40614,-0.26917 0.61584,-0.39296 4.498,-2.65523 9.63969,-6.08319 14.69883,-8.54258 4.76089,-2.61661 0.94718,-0.5274 -11.28211,6.54958 4.53922,-2.48351 8.91095,-5.26577 13.45511,-7.74024 4.04338,-2.20179 -7.96982,4.61186 -11.95233,6.92192 -0.24339,0.14117 0.49119,-0.27462 0.73489,-0.41526 4.47828,-2.58442 8.95401,-5.17326 13.43102,-7.75989 0.47349,-0.17955 1.82604,-0.87105 1.38908,-0.61512 -4.0171,2.35285 -8.04598,4.68555 -12.07342,7.02064 -0.20677,0.11988 0.40515,-0.25379 0.6112,-0.3749 4.43265,-2.60547 9.03478,-4.94054 13.3048,-7.80479 3.86483,-2.59245 -8.05787,4.65852 -12.0868,6.98777 22.05501,-12.67536 13.62633,-7.86944 1.31544,-0.65234 -0.20218,0.11852 0.42789,-0.19671 0.62138,-0.32894 0.4047,-0.27657 0.58462,-0.82143 1.00503,-1.07346 4.41235,-2.64517 8.92036,-5.1274 13.38054,-7.6911 -4.02585,2.33306 -8.05414,4.66191 -12.07754,6.99917 -0.20768,0.12064 0.42288,-0.22802 0.63021,-0.34923 4.43856,-2.59484 8.91219,-5.13103 13.30729,-7.79882 3.98175,-2.4169 -8.03725,4.71024 -12.06712,7.04605 -0.20546,0.11909 0.39518,-0.2635 0.59276,-0.39525 4.42454,-2.61733 8.84908,-5.23465 13.27361,-7.85198 1.35525,-0.77359 2.82136,-1.40421 4.38712,-1.55976 1.97766,-0.0755 3.95814,-0.0315 5.93674,-0.0176 1.89994,0.0473 3.81963,0.0976 5.67011,0.57659 1.54263,0.47399 3.06367,1.10592 4.46516,1.9029 1.26032,0.94432 2.40503,1.95489 3.24632,3.30775 0.82354,1.30857 1.68083,2.57831 2.80628,3.6524 0.49095,0.41509 0.95413,1.05504 1.65347,0.75817 0.16032,-0.068 0.60852,-0.33901 0.45865,-0.25028 -4.06446,2.40638 -8.13514,4.80226 -12.20271,7.20339 1.38405,-0.72397 1.85845,-2.12859 2.10676,-3.6053 -0.0154,-1.88416 -0.0272,-3.7728 -0.22667,-5.6485 -0.22691,-1.74607 -0.75628,-3.43693 -0.85664,-5.19281 -0.1218,-1.5878 -0.299,-3.17956 -1.04439,-4.61631 -0.65407,-1.40991 -1.23188,-2.86672 -1.85184,-4.28737 -0.48887,-1.55168 -0.64317,-3.20247 -1.37512,-4.68518 -0.33093,-1.50145 -0.92143,-2.91638 -1.36036,-4.38431 -0.67135,-1.27798 -1.63358,-2.38868 -2.18039,-3.73881 -0.71012,-1.10888 -1.43163,-2.17491 -2.6245,-2.81593 -1.38282,-0.60103 -2.63507,-1.37282 -3.94293,-2.11305 -1.37583,-0.61588 -2.77388,-1.18906 -4.11615,-1.87341 -0.43861,-0.2459 -0.9449,-0.56291 -1.48442,-0.49028 -0.12859,0.0173 -0.46457,0.23063 -0.35219,0.16577 12.42004,-7.16917 17.08117,-7.37475 11.82266,-7.05554 -1.11879,0.81598 -1.55764,2.67233 -2.20444,3.87557 -0.74081,1.56522 -1.42231,3.10972 -1.73048,4.83438 -0.18073,0.46488 -0.43917,0.89853 -0.60104,1.37032 -0.34442,1.00383 -0.42485,2.09907 -1.18591,2.92794 -0.62258,1.60336 -1.77149,2.61157 -3.29838,3.3785 -0.44384,0.34661 -0.75973,0.85462 -1.24224,1.14499 -5.09758,3.06768 -10.02744,6.35723 -15.43947,8.76006 -1.6845,0.68415 -3.46285,0.666 -5.25596,0.53203 -1.8124,-0.12119 -3.63033,-0.31091 -5.33924,-0.97175 -1.49831,-0.53912 -3.08054,-0.86483 -4.42534,-1.76836 -1.40822,-0.64233 -2.93505,-0.90448 -4.34768,-1.53768 -0.83203,-0.31404 -1.58374,-0.44702 -2.44402,-0.10874 -0.2388,0.0939 -0.91523,0.46278 -0.69467,0.33165 4.00415,-2.38045 8.03201,-4.72079 12.04801,-7.08118 -1.70414,0.76726 -1.49483,2.05804 -2.48931,3.44323 -0.72163,0.6617 -1.20404,1.47472 -1.78699,2.24712 -3.23857,4.29103 -17.6699,-0.65298 -13.79511,8.35506 -1.89888,0.3134 -3.83302,0.11412 -5.74996,0.16835 -1.99995,-2e-5 -3.9999,-8e-5 -5.99985,3.6e-4 -2.00215,6e-4 -4.00431,0.002 -6.00646,0.005 -2.0118,0.003 -4.02365,0.0111 -6.03542,-0.003 -1.91845,-0.0239 -3.84984,-0.0332 -5.7464,-0.35683 -1.54385,-0.35773 -2.77856,-0.88201 -3.37288,-2.45911 0.12933,-0.80246 0.46669,-0.77547 1.06428,-1.25271 0.61104,-0.48797 0.77338,-1.25101 1.41571,-1.70728 1.3214,-0.75995 2.47218,-1.67262 3.51926,-2.77629 0.99066,-1.2352 2.23281,-2.19774 3.31146,-3.33818 1.16153,-0.84108 2.1132,-1.9351 3.3333,-2.70823 1.32849,-0.61119 2.06864,-1.82331 3.18518,-2.71666 0.8748,-1.10843 1.99764,-2.01651 3.0042,-2.99604 0.87492,-1.10357 1.99806,-1.99973 2.98972,-2.99038 0.84801,-1.11846 1.93911,-2.02105 2.6906,-3.22421 0.10787,-0.23385 0.21574,-0.4677 0.32361,-0.70156 0.12976,-0.20144 0.28502,-0.38858 0.38928,-0.60433 0.48115,-0.99577 0.72904,-1.98585 1.84173,-2.49724 0.56186,-0.53528 1.26531,-1.098702 1.9371,-1.488854 6.55236,-3.805382 9.39267,-7.680218 15.52739,-7.917955 1.99865,-0.006 3.99827,-0.02371 5.99602,0.04826 1.83916,0.100897 3.71998,0.226181 5.37232,1.124587 1.21678,0.785317 2.29031,1.754209 3.32046,2.768444 1.31484,0.781251 2.78322,1.309114 3.93962,2.338551 1.16941,0.852501 2.44279,1.50757 3.92157,1.109044 -4.04251,2.350183 -8.11639,4.647223 -12.12753,7.050563 -0.2038,0.12211 0.46735,-0.10097 0.68556,-0.19493 1.10927,-0.47761 1.1528,-1.6318 1.09928,-2.68803 -0.003,-1.94467 -5e-4,-3.890628 -0.0983,-5.833387 -0.11478,-1.754194 -0.32616,-3.495146 -0.74835,-5.205338 -0.31897,-1.952254 -0.10013,-3.943729 -0.23926,-5.914912 -0.0752,-1.610294 -0.17653,-3.222379 -0.45553,-4.812578 -1.08194,-6.499914 9.90959,-11.51119 15.02059,-7.933099 1.37531,0.604404 2.85754,0.836309 4.3495,0.953263 1.70017,-0.102959 3.34794,-0.501387 5.02529,-0.769975 1.98055,-0.07619 3.96386,-0.0323 5.9455,-0.03113 1.93195,0.03246 3.88219,0.05832 5.77619,0.484456 1.55949,0.437247 2.94276,1.185979 4.37228,1.93208 0.54436,0.292307 1.08859,0.57496 1.69515,0.721134 0.13128,0.03164 0.28001,0.101848 0.40259,0.04519 0.0954,-0.04409 0.21597,-0.342606 0.12542,-0.289258 -4.14034,2.439426 -8.21721,4.985026 -12.32582,7.477539 1.45981,-0.377207 -0.0681,-2.693411 -0.2757,-3.53724 -0.39303,-1.586881 -1.03154,-3.082442 -1.81409,-4.516143 -0.75202,-1.302723 -1.38904,-2.670218 -2.14449,-3.972381 -0.84009,-1.46222 -1.2305,-3.10892 -2.12546,-4.535888 -0.87534,-1.173867 -1.75021,-2.346727 -2.77575,-3.395457 -0.80812,-1.242191 -1.58477,-2.501811 -2.35612,-3.768168 -0.60092,-1.228152 -1.44566,-2.339197 -2.45119,-3.264568 -0.95275,-1.002739 -1.94984,-1.973619 -3.02574,-2.84353 -1.14379,-0.870291 -2.40147,-1.459552 -3.84125,-1.646653 -1.85279,-0.302122 -3.73313,-0.146169 -5.60335,-0.150628 -1.85021,0.04841 -3.71411,0.105149 -5.52662,0.516845 -1.59844,0.407388 -3.19071,0.821958 -4.78639,1.229309 -1.46311,0.617739 -2.84392,1.428181 -4.46772,1.568028 -1.72144,0.371697 -3.25354,1.107507 -4.84903,1.828197 -0.55078,0.21913 -1.1135,0.408442 -1.65884,0.640784 -0.23334,0.09942 -0.9028,0.461677 -0.68386,0.33363 4.01691,-2.349286 8.05147,-4.668252 12.07952,-6.998375 0.20914,-0.120983 -0.41516,0.247282 -0.62274,0.370924 -4.45745,2.568766 -8.91491,5.137532 -13.37236,7.706297 -13.11686,6.158837 39.05058,-21.87244 -4.07739,1.913863 -1.46072,0.558479 -2.98215,0.96531 -4.43391,1.552146 -1.41042,0.550981 -2.75838,1.258643 -4.12596,1.905627 -5.00639,2.126338 -0.30388,0.162492 11.38149,-6.69006 0.20729,-0.12156 -0.45055,0.172339 -0.65981,0.290469 -0.9935,0.560827 -0.19335,0.227757 -1.09184,0.95679 -0.1883,0.15279 -0.41582,0.249623 -0.62373,0.374434 -5.77868,3.336449 -10.9515,6.571379 -16.76392,9.353822 -1.46558,0.489282 -2.99849,0.809043 -4.54555,0.526548 -1.53214,-0.566495 -2.65056,-1.544804 -3.69047,-2.789169 -0.96372,-1.141248 -1.92965,-2.275191 -2.78039,-3.505783 -0.98491,-1.407052 -2.36811,-2.49772 -3.26573,-3.977663 -0.91572,-1.39528 -1.81405,-2.803934 -2.83583,-4.125336 -0.89689,-1.286776 -2.05694,-2.371115 -2.9567,-3.661611 -0.82937,-1.17404 -1.73155,-2.191688 -3.04192,-2.849096 -1.51206,-0.752804 -3.10121,-1.278232 -4.7939,-1.433348 -1.7014,-0.01553 -3.45535,0.108144 -5.02279,0.823029 22.99288,-13.324513 13.07297,-8.540641 9.23531,-4.830491 -1.32136,0.727392 -2.50991,1.587792 -3.64283,2.575475 -1.8193,1.916644 0.71224,-0.675231 -1.20209,1.047042 -0.80127,0.720878 -1.14266,1.816778 -1.94966,2.544655 -4.69145,3.218699 -2.07633,1.44629 -13.876577,7.99904 C 90.342642,58.037808 89.202455,57.4081 88.516656,56.981217 87.330321,55.948523 86.49417,54.648375 85.751853,53.269543 85.138682,51.944968 84.288806,50.733734 83.444547,49.54811 82.630522,48.147358 81.796935,46.768677 80.893119,45.42454 80.021832,44.200739 79.185551,42.956464 78.262977,41.770825 77.541221,40.379411 76.852564,39.040566 75.779262,37.865508 74.728473,36.470045 73.711493,35.049723 72.62973,33.677428 71.647548,32.392965 70.789885,30.956779 69.481949,29.969456 68.200135,28.900005 67.246871,27.539859 66.251424,26.209959 65.383691,24.9411 64.298805,23.848442 63.39474,22.605736 62.501283,21.257606 61.53632,19.983258 60.446088,18.787564 59.256313,17.479984 57.803398,16.420578 56.808267,14.924334 55.364224,13.15304 53.66288,11.634266 52.025164,10.047662 49.948971,8.0719377 47.747866,6.2135773 45.424426,4.5352946 c 0,0 12.586553,-7.8708909 12.586553,-7.8708909 z"
       inkscape:connector-curvature="0" />
    <path
       style="fill:#ffffff"
       d="M 53.20679,46.677316 C 51.936591,40.208371 44.985719,13.699763 43.701446,10.426692 43.263922,9.3116262 43.736615,8.38318 45.118324,7.6437115 c 2.611811,-1.3977985 6.554228,1.2856477 12.109264,8.2422935 3.178193,3.980093 4.242298,6.590125 6.319318,15.5 C 64.920579,37.278702 66.33154,43.675 66.682374,45.6 l 0.637881,3.5 -6.410993,2.077316 -6.410993,2.077316 z"
       id="path30"
       inkscape:connector-curvature="0" />
    <path
       style="fill:#ffffff"
       d="m 6.6016895,252.62495 c -1.6999567,-0.68723 -2.2220304,-2.03196 -2.75,-7.0833 C 2.7184959,234.69983 3.1435738,217.18257 4.7631447,207.98099 5.6228743,203.09645 6.4103743,194.15 6.5131447,188.1 L 6.7,177.1 l 4.5,-3.26101 c 2.475,-1.79355 5.969536,-4.26855 7.765635,-5.5 2.142576,-1.469 3.174282,-2.92679 3,-4.23899 -0.239978,-1.80683 -1.216064,-2.04829 -10.10572,-2.5 l -9.8400854,-0.5 7.3400852,-7.1056 C 13.396962,150.08632 18.5,145.96773 20.7,144.84197 25.65636,142.30576 33.52062,134.92779 32.693739,133.58987 32.353268,133.03898 27.451713,132.6 21.640983,132.6 15.898442,132.6 11.2,132.32279 11.2,131.98398 c 0,-1.2791 7.234212,-10.40365 10.302089,-12.99409 C 23.26094,117.50477 26.725,115.33451 29.2,114.1671 39.852871,109.14236 47.299565,104.35566 46.984537,102.73528 46.720088,101.37507 45.239657,101.1 38.183305,101.1 c -4.665818,0 -9.528391,0.37817 -10.805718,0.84037 l -2.322412,0.84037 1.713106,-3.340369 C 29.755815,93.615004 33.147474,90.38487 39.363148,87.445321 46.116581,84.251452 58.2,76.563451 58.2,75.460489 58.2,73.832271 52.667024,70.588297 46.395905,68.539768 40.829537,66.721454 36.44553,64.6 38.254332,64.6 c 0.249883,0 3.555943,-1.125 7.3468,-2.5 8.562292,-3.10567 9.408705,-3.105849 10.187683,-0.0022 l 0.626919,2.497845 6.938976,-3.646328 c 6.598271,-3.467293 6.907783,-3.788349 6.303681,-6.538805 C 69.282452,52.69887 69.517437,50.922393 70.233993,50.058996 71.203657,48.890667 71.146227,48.6 69.945718,48.6 c -1.392819,0 -4.235224,-9.859981 -6.342091,-22 l -0.607416,-3.5 2.623009,3 c 5.340703,6.108294 11.327838,14.179184 15.149465,20.422064 2.162223,3.532135 5.167804,7.728239 6.679068,9.324676 l 2.747753,2.902612 5.752247,-3.225202 c 3.163736,-1.773862 7.184967,-4.282651 8.936067,-5.575088 4.36332,-3.220446 7.03581,-2.025717 13.04039,5.829682 C 125.31674,65.44991 130.28626,70.6 132.22581,70.6 c 0.97411,0 4.40429,-1.396306 7.62264,-3.102902 3.21835,-1.706595 10.48778,-5.093495 16.15428,-7.526443 16.92648,-7.267488 26.6184,-9.019131 32.04298,-5.791202 2.69037,1.600924 9.65042,10.611699 12.59522,16.306321 L 202.25136,73.6 h -4.97863 c -2.73824,0 -6.12347,-0.521627 -7.52273,-1.159171 -3.46396,-1.578289 -9.77247,0.35524 -12.50877,3.833882 -1.7894,2.274861 -1.97895,3.47679 -1.41555,8.975932 L 176.47619,91.6 h -7.81838 c -7.47242,0 -8.09884,0.18273 -14.15669,4.129573 -3.48607,2.271265 -7.76555,5.983767 -9.50996,8.249997 -1.74441,2.26624 -5.64161,6.37043 -8.66044,9.12043 -16.38908,14.92963 -16.8013,15.40721 -14.68959,17.01869 1.52001,1.15995 5.27513,1.48131 17.30902,1.48131 9.53488,0 15.14329,-0.36339 14.77617,-0.95741 -0.5877,-0.95093 4.14378,-3.99388 7.97368,-5.12811 1.1,-0.32576 4.15416,0.23521 6.78702,1.24661 6.65125,2.55504 11.81332,2.32683 17.99622,-0.79561 5.91085,-2.98505 13.8583,-8.19712 14.93827,-9.79678 0.39683,-0.58779 1.10781,-1.64644 1.57995,-2.35257 2.11771,-3.16722 5.92113,1.62659 9.06925,11.4308 1.03368,3.21919 2.20879,6.64057 2.61134,7.60307 0.65572,1.56778 0.0173,1.75 -6.13166,1.75 -8.81479,0 -11.95894,0.95109 -17.74519,5.36784 -4.44037,3.38941 -22.70097,12.90478 -32.57484,16.97434 -4.35049,1.79308 -14.30713,3.8442 -34.34044,7.07432 -10.27373,1.65651 -14.6666,3.38637 -28.991251,11.4164 -7.731053,4.33382 -9.011125,5.46874 -11.583146,10.26968 -3.017313,5.63213 -11.60671,19.74721 -23.762356,39.04904 -3.930758,6.24161 -9.093544,15.28588 -11.472857,20.09838 l -4.326024,8.75 -17.527143,-0.0634 C 16.587214,253.50175 7.7557603,253.0915 6.6016895,252.62495 Z"
       id="path32"
       inkscape:connector-curvature="0" />
    <path
       style="fill:#ffffff"
       d=""
       id="path34"
       inkscape:connector-curvature="0" />
    <path
       style="fill:#ffffff"
       d="M 56.866667,61.933333 C 55.618361,60.685028 56.195128,58.538998 57.95,57.902472 c 0.9625,-0.349117 3.458251,-1.964243 5.546114,-3.589168 4.137291,-3.219937 4.146228,-3.21996 5.13127,-0.01301 0.577108,1.87886 -0.09866,2.644447 -4.625772,5.240616 -5.698907,3.268158 -6.118512,3.408856 -7.134945,2.392422 z"
       id="path36"
       inkscape:connector-curvature="0" />
  </g>
</svg>
